<svg width="512" height="512" viewBox="0 0 512 512" fill="none" xmlns="http://www.w3.org/2000/svg">
<rect width="512" height="512" fill="#1E1E1E"/>
<rect width="512" height="512" fill="white"/>
<path d="M378.089 37.8872C384.394 31.5822 391.879 26.5808 400.117 23.1685C408.355 19.7563 417.184 18 426.101 18C435.018 18 443.847 19.7563 452.085 23.1685C460.323 26.5808 467.808 31.5822 474.113 37.8872C480.418 44.1922 485.419 51.6773 488.832 59.9152C492.244 68.1531 494 76.9824 494 85.899C494 94.8157 492.244 103.645 488.832 111.883C485.419 120.121 480.418 127.606 474.113 133.911L150.033 457.991L18 494L54.0089 361.967L378.089 37.8872Z" stroke="#F34949" stroke-width="10" stroke-linecap="round" stroke-linejoin="round"/>
</svg>
